<svg width="14" height="23" viewBox="0 0 14 23" fill="none" xmlns="http://www.w3.org/2000/svg">
<path fill-rule="evenodd" clip-rule="evenodd" d="M1.72104 9.38973V12.6772C1.72104 13.0914 1.38525 13.4272 0.971039 13.4272C0.556825 13.4272 0.221039 13.0914 0.221039 12.6772V9.2052C0.221039 9.08886 0.248103 8.97411 0.300092 8.87004C0.300092 8.87004 0.299927 8.87037 0.300243 8.86974L0.300937 8.86835L0.302422 8.86539C0.303625 8.86301 0.30525 8.85979 0.307292 8.85577C0.311376 8.84772 0.317129 8.83645 0.324497 8.82218C0.339231 8.79364 0.360448 8.75303 0.387726 8.70207C0.442236 8.60023 0.521203 8.45659 0.621241 8.28498C0.820403 7.94332 1.10743 7.48333 1.45537 7.01927C1.80005 6.55955 2.22313 6.07061 2.69902 5.68997C3.16456 5.31762 3.76278 4.98316 4.44307 4.98316H5.17198C5.86817 4.98316 6.53585 5.25973 7.02813 5.75201C7.52041 6.24429 7.79698 6.91197 7.79698 7.60816V16.0586L10.3231 21.1627C10.5068 21.5339 10.3548 21.9838 9.98355 22.1675C9.61232 22.3513 9.16243 22.1993 8.9787 21.828L6.36817 16.5533L4.32406 13.942C4.30393 13.9163 4.2855 13.8893 4.26889 13.8612C3.89109 13.2217 3.69221 12.4923 3.69307 11.7495V6.81674C3.67427 6.83107 3.65524 6.84595 3.63596 6.86136C3.29794 7.13173 2.96162 7.5108 2.6555 7.91909C2.35264 8.32303 2.09747 8.73105 1.91713 9.0404C1.83407 9.1829 1.76781 9.30285 1.72104 9.38973Z" fill="#373737"/>
<path d="M12.2543 12.6772C12.0831 12.6772 11.9158 12.6265 11.7734 12.5314L8.95479 10.7188C8.81536 10.6289 8.70068 10.5054 8.62125 10.3597C8.54182 10.2141 8.50017 10.0508 8.5001 9.88488V8.77395C8.50004 8.72643 8.51276 8.67976 8.53694 8.63885C8.56111 8.59794 8.59585 8.56429 8.63751 8.54142C8.67916 8.51856 8.72621 8.50732 8.7737 8.50889C8.82119 8.51046 8.86739 8.52478 8.90745 8.55035L12.7348 11.0868C12.8899 11.1901 13.0076 11.3407 13.0705 11.5162C13.1334 11.6916 13.1381 11.8827 13.084 12.061C13.0299 12.2394 12.9199 12.3956 12.7701 12.5066C12.6203 12.6176 12.4388 12.6774 12.2524 12.6772H12.2543Z" fill="#373737"/>
<path d="M3.05838 22.1314C2.92348 22.1316 2.7904 22.1003 2.66972 22.04C2.54904 21.9797 2.4441 21.8921 2.36323 21.7841C2.07541 21.4007 2.17573 20.9788 2.53666 20.5691L5.34682 17.0694C5.38551 17.0404 5.42982 17.0199 5.47692 17.009C5.52402 16.9981 5.57286 16.9972 5.62034 17.0063C5.66781 17.0154 5.71286 17.0343 5.75261 17.0618C5.79237 17.0893 5.82594 17.1248 5.8512 17.166C5.92432 17.285 6.00963 17.4308 6.09448 17.5921C6.3401 18.0585 6.37573 18.3472 6.01573 18.7968C5.64073 19.2655 3.57823 21.958 3.57823 21.958C3.45541 22.0977 3.23932 22.1314 3.05838 22.1314Z" fill="#373737"/>
<path fill-rule="evenodd" clip-rule="evenodd" d="M4.93573 2.26066C4.93573 1.09465 5.88096 0.149414 7.04698 0.149414C8.21299 0.149414 9.15823 1.09465 9.15823 2.26066C9.15823 3.42668 8.21299 4.37191 7.04698 4.37191C5.88096 4.37191 4.93573 3.42667 4.93573 2.26066Z" fill="#373737"/>
</svg>
