<svg width="22" height="18" viewBox="0 0 22 18" fill="none" xmlns="http://www.w3.org/2000/svg">
<path d="M17.1875 17.9999C16.3346 17.9999 15.5008 17.747 14.7916 17.2731C14.0824 16.7993 13.5297 16.1258 13.2033 15.3377C12.8769 14.5497 12.7915 13.6826 12.9579 12.8461C13.1243 12.0096 13.535 11.2411 14.1381 10.638C14.7412 10.0349 15.5096 9.62419 16.3462 9.45779C17.1827 9.29139 18.0498 9.37679 18.8378 9.70319C19.6258 10.0296 20.2994 10.5823 20.7732 11.2915C21.2471 12.0007 21.5 12.8345 21.5 13.6874C21.4988 14.8308 21.044 15.927 20.2355 16.7355C19.427 17.5439 18.3309 17.9987 17.1875 17.9999ZM17.1875 10.8749C16.6312 10.8749 16.0875 11.0399 15.625 11.3489C15.1624 11.658 14.802 12.0972 14.5891 12.6111C14.3762 13.125 14.3205 13.6905 14.429 14.2361C14.5376 14.7817 14.8054 15.2828 15.1988 15.6762C15.5921 16.0695 16.0932 16.3374 16.6388 16.4459C17.1844 16.5544 17.7499 16.4987 18.2638 16.2858C18.7777 16.073 19.217 15.7125 19.526 15.25C19.8351 14.7875 20 14.2437 20 13.6874C19.9991 12.9418 19.7025 12.2269 19.1753 11.6996C18.648 11.1724 17.9332 10.8758 17.1875 10.8749Z" fill="#373737"/>
<path d="M4.8125 17.9999C3.95957 17.9999 3.12579 17.747 2.41661 17.2731C1.70742 16.7993 1.15467 16.1258 0.828271 15.3377C0.501869 14.5497 0.416467 13.6826 0.582865 12.8461C0.749264 12.0096 1.15999 11.2411 1.7631 10.638C2.36622 10.0349 3.13463 9.62419 3.97117 9.45779C4.80772 9.29139 5.67482 9.37679 6.46282 9.70319C7.25083 10.0296 7.92435 10.5823 8.39822 11.2915C8.87208 12.0007 9.125 12.8345 9.125 13.6874C9.12376 14.8308 8.66901 15.927 7.86053 16.7355C7.05205 17.5439 5.95587 17.9987 4.8125 17.9999ZM4.8125 10.8749C4.25624 10.8749 3.71247 11.0399 3.24996 11.3489C2.78745 11.658 2.42696 12.0972 2.21409 12.6111C2.00122 13.125 1.94552 13.6905 2.05404 14.2361C2.16256 14.7817 2.43043 15.2828 2.82376 15.6762C3.2171 16.0695 3.71824 16.3374 4.26381 16.4459C4.80938 16.5544 5.37488 16.4987 5.8888 16.2858C6.40272 16.073 6.84197 15.7125 7.15101 15.25C7.46005 14.7875 7.625 14.2437 7.625 13.6874C7.62413 12.9418 7.32754 12.2269 6.80028 11.6996C6.27302 11.1724 5.55816 10.8758 4.8125 10.8749Z" fill="#373737"/>
<path d="M14 2.99993C14.1976 3.00061 14.3933 2.96212 14.5759 2.88669C14.7585 2.81126 14.9244 2.70038 15.0639 2.56045C15.2033 2.42053 15.3137 2.25435 15.3886 2.07151C15.4634 1.88867 15.5013 1.6928 15.5 1.49524C15.5022 1.29866 15.4652 1.10362 15.3911 0.921516C15.317 0.739415 15.2074 0.573912 15.0686 0.434683C14.9298 0.295454 14.7646 0.185294 14.5828 0.110645C14.4009 0.0359954 14.206 -0.00164485 14.0094 -7.49083e-05C13.8124 -0.000690482 13.6172 0.0374985 13.435 0.112312C13.2528 0.187125 13.0871 0.297098 12.9473 0.43595C12.8076 0.574803 12.6966 0.739816 12.6207 0.921569C12.5447 1.10332 12.5053 1.29825 12.5047 1.49524C12.5041 1.69222 12.5423 1.8874 12.6171 2.06962C12.6919 2.25184 12.8019 2.41755 12.9407 2.55727C13.0796 2.69699 13.2446 2.808 13.4263 2.88395C13.6081 2.9599 13.803 2.99931 14 2.99993Z" fill="#373737"/>
<path d="M16.2289 5.99993H14.1777C14.144 5.99993 14.111 5.99088 14.082 5.97373C14.0531 5.95657 14.0293 5.93195 14.0131 5.90242L12.5253 3.17571C12.4205 2.97307 12.2694 2.79797 12.0843 2.66457C11.8993 2.53117 11.6854 2.44322 11.46 2.40785C11.2346 2.37247 11.004 2.39067 10.787 2.46095C10.5699 2.53124 10.3725 2.65165 10.2106 2.81243L6.93594 6.11242C6.66083 6.39322 6.50467 6.76934 6.5 7.16243C6.5 7.97805 7.09063 8.26867 7.36719 8.43274C8.70313 9.20243 9.64391 9.76539 10.16 10.0781C10.1874 10.0948 10.2101 10.1182 10.2259 10.1462C10.2416 10.1742 10.2499 10.2058 10.25 10.2379V13.4779C10.25 13.8815 10.5603 14.2279 10.9639 14.248C11.0652 14.2529 11.1665 14.2372 11.2616 14.2018C11.3567 14.1664 11.4436 14.1121 11.5171 14.0422C11.5905 13.9723 11.6491 13.8882 11.6891 13.7949C11.7292 13.7017 11.7499 13.6014 11.75 13.4999V9.46868C11.7501 9.34961 11.7218 9.23225 11.6675 9.12628C11.6132 9.02032 11.5345 8.9288 11.4378 8.8593L9.70344 7.61196C9.68167 7.59638 9.66349 7.57632 9.65012 7.55313C9.63674 7.52994 9.62849 7.50416 9.62592 7.47751C9.62334 7.45087 9.6265 7.42398 9.63518 7.39866C9.64387 7.37333 9.65787 7.35016 9.67625 7.33071L11.645 5.23118C11.6652 5.20957 11.6902 5.19305 11.718 5.18296C11.7458 5.17287 11.7756 5.16949 11.8049 5.1731C11.8342 5.17671 11.8623 5.18721 11.8868 5.20374C11.9113 5.22026 11.9316 5.24236 11.9459 5.26821L12.9688 7.11414C13.0338 7.23116 13.1289 7.32865 13.2443 7.39648C13.3597 7.46432 13.4911 7.50004 13.625 7.49993H16.25C16.3516 7.50004 16.4522 7.47951 16.5456 7.43959C16.639 7.39966 16.7234 7.34116 16.7935 7.26765C16.8636 7.19414 16.9181 7.10714 16.9536 7.01194C16.9891 6.91674 17.0049 6.81532 17 6.71383C16.9803 6.31024 16.6325 5.99993 16.2289 5.99993Z" fill="#373737"/>
</svg>
