<svg width="18" height="12" viewBox="0 0 18 12" fill="none" xmlns="http://www.w3.org/2000/svg">
<path d="M16.8867 4.49415L10.0321 0.171383C9.86255 0.0626248 9.66837 0.00386395 9.46989 0.00123952C9.2714 -0.0013849 9.07589 0.0522235 8.90378 0.156464C8.71703 0.271089 8.56239 0.435765 8.45556 0.633769C8.34873 0.831773 8.29351 1.05605 8.29552 1.28383V4.30785L1.73668 0.170235C1.5671 0.0614773 1.37293 0.00271636 1.17444 9.19342e-05C0.97596 -0.00253249 0.780449 0.0510759 0.608337 0.155316C0.421589 0.269941 0.266945 0.434618 0.160112 0.632622C0.0532799 0.830625 -0.00193787 1.0549 6.86646e-05 1.28268V9.73694C-0.00203896 9.96479 0.053133 10.1892 0.159971 10.3872C0.266811 10.5853 0.421509 10.7501 0.608337 10.8647C0.780449 10.9689 0.97596 11.0225 1.17444 11.0199C1.37293 11.0173 1.5671 10.9585 1.73668 10.8498L8.29552 6.71024V9.73541C8.29315 9.96352 8.3482 10.1882 8.45505 10.3866C8.5619 10.585 8.71674 10.7499 8.90378 10.8647C9.07589 10.9689 9.2714 11.0225 9.46989 11.0199C9.66837 11.0173 9.86255 10.9585 10.0321 10.8498L16.8867 6.527C17.0497 6.4194 17.184 6.26993 17.2772 6.09261C17.3703 5.91529 17.4192 5.71593 17.4192 5.51325C17.4192 5.31057 17.3703 5.11122 17.2772 4.9339C17.184 4.75657 17.0497 4.6071 16.8867 4.49951V4.49415Z" fill="#373737" fill-opacity="0.9"/>
</svg>
