<svg width="14" height="16" viewBox="0 0 14 16" fill="none" xmlns="http://www.w3.org/2000/svg">
<path d="M1.50852 15.02C1.25793 15.0195 1.01177 14.9538 0.79426 14.8294C0.30448 14.5519 0 14.0131 0 13.4282V1.59186C0 1.00535 0.30448 0.46822 0.79426 0.190678C1.01695 0.0626971 1.26993 -0.00311746 1.52675 0.000113481C1.78357 0.00334443 2.03482 0.0755024 2.25421 0.209045L12.3702 6.26436C12.581 6.39656 12.7548 6.58013 12.8753 6.79787C12.9958 7.01561 13.059 7.26038 13.059 7.50922C13.059 7.75806 12.9958 8.00283 12.8753 8.22057C12.7548 8.43831 12.581 8.62188 12.3702 8.75408L2.25258 14.811C2.02806 14.9468 1.77089 15.019 1.50852 15.02Z" fill="#373737" fill-opacity="0.9"/>
</svg>
