<svg width="24" height="14" viewBox="0 0 24 14" fill="none" xmlns="http://www.w3.org/2000/svg">
<path d="M21.75 13.0185C21.54 13.0183 21.3324 12.9741 21.1406 12.8887C21.096 12.8688 21.0535 12.8447 21.0136 12.8165L17.1366 10.0874C16.9399 9.94899 16.7795 9.76534 16.6687 9.55193C16.5579 9.33852 16.5001 9.10161 16.5 8.86115V5.13928C16.5001 4.89883 16.5579 4.66191 16.6687 4.4485C16.7795 4.23509 16.9399 4.05144 17.1366 3.91303L21.0136 1.18397C21.0535 1.15577 21.096 1.13159 21.1406 1.11178C21.369 1.01025 21.6191 0.967385 21.8683 0.987093C22.1174 1.0068 22.3577 1.08845 22.5673 1.22463C22.7769 1.36081 22.9491 1.54719 23.0683 1.76685C23.1875 1.98651 23.25 2.23247 23.25 2.4824V11.518C23.25 11.9159 23.092 12.2974 22.8107 12.5787C22.5294 12.86 22.1478 13.018 21.75 13.018V13.0185Z" fill="#373737"/>
<path d="M12.5625 13.75H3.9375C3.09239 13.7491 2.28214 13.413 1.68456 12.8154C1.08697 12.2179 0.750869 11.4076 0.75 10.5625V3.4375C0.750869 2.59239 1.08697 1.78214 1.68456 1.18456C2.28214 0.586973 3.09239 0.250869 3.9375 0.25H12.585C13.4241 0.250992 14.2286 0.584765 14.8219 1.1781C15.4152 1.77144 15.749 2.57589 15.75 3.415V10.5625C15.7491 11.4076 15.413 12.2179 14.8154 12.8154C14.2179 13.413 13.4076 13.7491 12.5625 13.75Z" fill="#373737"/>
</svg>
