<svg width="10" height="16" viewBox="0 0 10 16" fill="none" xmlns="http://www.w3.org/2000/svg">
<path d="M2.73091 15.02H0.682727C0.501657 15.02 0.328003 14.9481 0.199966 14.82C0.0719301 14.692 0 14.5183 0 14.3373V0.682727C0 0.501657 0.0719301 0.328003 0.199966 0.199966C0.328003 0.0719301 0.501657 0 0.682727 0H2.73091C2.91198 0 3.08563 0.0719301 3.21367 0.199966C3.34171 0.328003 3.41364 0.501657 3.41364 0.682727V14.3373C3.41364 14.5183 3.34171 14.692 3.21367 14.82C3.08563 14.9481 2.91198 15.02 2.73091 15.02Z" fill="#373737" fill-opacity="0.9"/>
<path d="M8.87546 15.02H6.82727C6.6462 15.02 6.47255 14.9481 6.34451 14.82C6.21648 14.692 6.14455 14.5183 6.14455 14.3373V0.682727C6.14455 0.501657 6.21648 0.328003 6.34451 0.199966C6.47255 0.0719301 6.6462 0 6.82727 0H8.87546C9.05653 0 9.23018 0.0719301 9.35822 0.199966C9.48625 0.328003 9.55818 0.501657 9.55818 0.682727V14.3373C9.55818 14.5183 9.48625 14.692 9.35822 14.82C9.23018 14.9481 9.05653 15.02 8.87546 15.02Z" fill="#373737" fill-opacity="0.9"/>
</svg>
