<svg width="18" height="12" viewBox="0 0 18 12" fill="none" xmlns="http://www.w3.org/2000/svg">
<path d="M0.532412 4.49415L7.38703 0.171383C7.55661 0.0626248 7.75078 0.00386395 7.94927 0.00123952C8.14775 -0.0013849 8.34327 0.0522235 8.51538 0.156464C8.70213 0.271089 8.85677 0.435765 8.9636 0.633769C9.07043 0.831773 9.12565 1.05605 9.12364 1.28383V4.30785L15.6825 0.170235C15.8521 0.0614773 16.0462 0.00271636 16.2447 9.19342e-05C16.4432 -0.00253249 16.6387 0.0510759 16.8108 0.155316C16.9976 0.269941 17.1522 0.434618 17.259 0.632622C17.3659 0.830625 17.4211 1.0549 17.4191 1.28268V9.73694C17.4212 9.96479 17.366 10.1892 17.2592 10.3872C17.1523 10.5853 16.9977 10.7501 16.8108 10.8647C16.6387 10.9689 16.4432 11.0225 16.2447 11.0199C16.0462 11.0173 15.8521 10.9585 15.6825 10.8498L9.12364 6.71024V9.73541C9.12601 9.96352 9.07096 10.1882 8.96411 10.3866C8.85726 10.585 8.70242 10.7499 8.51538 10.8647C8.34327 10.9689 8.14775 11.0225 7.94927 11.0199C7.75078 11.0173 7.55661 10.9585 7.38703 10.8498L0.532412 6.527C0.369459 6.4194 0.235113 6.26993 0.141985 6.09261C0.0488569 5.91529 0 5.71593 0 5.51325C0 5.31057 0.0488569 5.11122 0.141985 4.9339C0.235113 4.75657 0.369459 4.6071 0.532412 4.49951V4.49415Z" fill="#373737" fill-opacity="0.9"/>
</svg>
