<svg width="18" height="16" viewBox="0 0 18 16" fill="none" xmlns="http://www.w3.org/2000/svg">
<path d="M17.9849 6.34906C17.9742 6.29948 17.9585 6.2511 17.938 6.20469L16.1671 2.07219C15.7588 1.11734 14.7655 0.5 13.6354 0.5H4.36442C3.2352 0.5 2.24098 1.11734 1.83317 2.07219L0.0603527 6.20469C0.0200623 6.29791 -0.000524648 6.39845 -0.000116107 6.5V14.75C-0.000116107 14.9489 0.0789017 15.1397 0.219554 15.2803C0.360206 15.421 0.550972 15.5 0.749884 15.5H2.24988C2.4488 15.5 2.63956 15.421 2.78021 15.2803C2.92087 15.1397 2.99988 14.9489 2.99988 14.75V14H14.9999V14.75C14.9999 14.9489 15.0789 15.1397 15.2196 15.2803C15.3602 15.421 15.551 15.5 15.7499 15.5H17.2499C17.4488 15.5 17.6396 15.421 17.7802 15.2803C17.9209 15.1397 17.9999 14.9489 17.9999 14.75V6.5C17.9999 6.44931 17.9949 6.39875 17.9849 6.34906ZM3.74988 11C3.45321 11 3.1632 10.912 2.91653 10.7472C2.66985 10.5824 2.4776 10.3481 2.36406 10.074C2.25053 9.79994 2.22083 9.49834 2.27871 9.20737C2.33658 8.91639 2.47944 8.64912 2.68922 8.43934C2.899 8.22956 3.16628 8.0867 3.45725 8.02882C3.74822 7.97094 4.04982 8.00065 4.32391 8.11418C4.598 8.22771 4.83227 8.41997 4.99709 8.66664C5.16191 8.91332 5.24988 9.20333 5.24988 9.5C5.24988 9.89782 5.09185 10.2794 4.81054 10.5607C4.52924 10.842 4.14771 11 3.74988 11ZM14.2499 11C13.9532 11 13.6632 10.912 13.4165 10.7472C13.1699 10.5824 12.9776 10.3481 12.8641 10.074C12.7505 9.79994 12.7208 9.49834 12.7787 9.20737C12.8366 8.91639 12.9794 8.64912 13.1892 8.43934C13.399 8.22956 13.6663 8.0867 13.9572 8.02882C14.2482 7.97094 14.5498 8.00065 14.8239 8.11418C15.098 8.22771 15.3323 8.41997 15.4971 8.66664C15.6619 8.91332 15.7499 9.20333 15.7499 9.5C15.7499 9.89782 15.5918 10.2794 15.3105 10.5607C15.0292 10.842 14.6477 11 14.2499 11ZM1.88707 5.75L3.21035 2.66328C3.38004 2.26672 3.84363 2 4.36442 2H13.6354C14.1557 2 14.6197 2.26672 14.7894 2.66328L16.1127 5.75H1.88707Z" fill="#373737"/>
</svg>
